<svg width="151" height="40" viewBox="0 0 151 40" fill="none" xmlns="http://www.w3.org/2000/svg">
<g filter="url(#filter0_d)">
<path d="M21.3125 31.5312V18.5C21.3125 18.3045 21.3125 18.0835 21.3125 17.8448C21.3125 14.9971 19.004 12.6875 16.1562 12.6875C14.5 12.6875 9.20312 12.6875 9.20312 12.6875C9.20312 12.6875 9.20312 16.7656 9.20312 18.5469V31.5312H4V0H9.20312V7.76562C9.20312 7.76562 15.3233 7.76562 17.75 7.76562C20.625 7.76562 22.7969 8.64062 24.2656 10.3906C25.7344 12.0781 26.4688 14.3437 26.4688 17.1875V31.5312H21.3125Z" fill="#6935FD"/>
<path d="M28.7594 19.8594C28.7594 17.6094 29.3219 15.5469 30.4469 13.6719C31.6344 11.7344 33.1344 10.2812 34.9469 9.3125C36.8219 8.28125 38.8844 7.76562 41.1344 7.76562C43.3219 7.76562 45.3531 8.28125 47.2281 9.3125C49.1031 10.3437 50.6031 11.7812 51.7281 13.625C52.8219 15.5312 53.3688 17.5781 53.3688 19.7656C53.4313 23.1094 52.2281 26 49.7594 28.4375C47.3219 30.8438 44.4313 32.0156 41.0875 31.9531C38.9313 31.9531 36.8844 31.4219 34.9469 30.3594C33.1344 29.3906 31.6344 27.9375 30.4469 26C29.3219 24.125 28.7594 22.0781 28.7594 19.8594ZM34.1031 19.7656C34.1031 21.7969 34.7594 23.5469 36.0719 25.0156C37.3844 26.4844 39.0719 27.2187 41.1344 27.2187C43.1656 27.2187 44.8375 26.5 46.15 25.0625C47.4313 23.625 48.0719 21.8906 48.0719 19.8594C48.0719 17.7656 47.4156 16.0156 46.1031 14.6094C44.8531 13.1719 43.1813 12.4531 41.0875 12.4531C39.025 12.4531 37.3375 13.1562 36.025 14.5625C34.7438 15.9375 34.1031 17.6719 34.1031 19.7656Z" fill="#6935FD"/>
<path d="M60.8907 8.23438V21.2656C60.8907 21.4739 60.8907 21.7111 60.8907 21.9678C60.8907 24.7896 63.1783 27.0781 66.0001 27.0781C67.6564 27.0781 72.9532 27.0781 72.9532 27.0781C72.9532 27.0781 72.9532 23 72.9532 21.2187V8.23438H78.1564V32C78.1564 32 69.644 32 64.4064 32C62.5626 32 60.9689 31.5938 59.6251 30.7812C58.2814 29.9375 57.2814 28.7969 56.6251 27.3594C56.0001 26.0156 55.6876 24.4219 55.6876 22.5781V8.23438H60.8907Z" fill="#6935FD"/>
<path d="M89.8689 31.9531C86.4001 31.9219 83.8533 30.8281 82.2283 28.6719C81.2908 27.4531 80.7751 26.2812 80.6814 25.1562L85.1345 23.9844C85.3845 25.1094 85.9158 26.0156 86.7283 26.7031C87.5408 27.3594 88.572 27.6875 89.822 27.6875C90.8533 27.6875 91.6501 27.4531 92.2126 26.9844C92.8064 26.4844 93.1033 25.8125 93.1033 24.9688C93.1033 23.6875 92.1814 22.8281 90.3376 22.3906L87.3845 21.6875C85.3845 21.2187 83.8533 20.4062 82.7908 19.25C81.7283 18.0625 81.197 16.6562 81.197 15.0312C81.197 13.0312 81.9939 11.3125 83.5876 9.875C85.1814 8.4375 87.1345 7.71875 89.447 7.71875C92.7283 7.75 95.1189 8.78125 96.6189 10.8125C97.4001 11.8437 97.8689 12.8906 98.0251 13.9531L93.6658 15.1719C93.447 14.2031 92.9783 13.4219 92.2595 12.8281C91.572 12.2344 90.6345 11.9375 89.447 11.9375C88.572 11.9375 87.822 12.1875 87.197 12.6875C86.572 13.125 86.2595 13.75 86.2595 14.5625C86.2595 15.875 87.0408 16.6875 88.6033 17L91.7908 17.6562C93.8845 18.125 95.5095 18.9844 96.6658 20.2344C97.822 21.5469 98.4001 23.0312 98.4001 24.6875C98.4001 26.6562 97.6501 28.3594 96.1501 29.7969C94.6814 31.2344 92.5876 31.9531 89.8689 31.9531Z" fill="#6935FD"/>
<path d="M122.538 21.4062H104.819C104.85 23.0937 105.569 24.5469 106.975 25.7656C108.382 26.9531 109.944 27.5312 111.663 27.5C114.913 27.5 116.975 26.1875 117.85 23.5625L122.21 24.9219C121.803 26.3281 121.053 27.5781 119.96 28.6719C118.897 29.7656 117.647 30.5937 116.21 31.1562C114.71 31.6875 113.21 31.9531 111.71 31.9531C108.335 32.0156 105.444 30.8594 103.038 28.4844C100.632 26.1094 99.4597 23.2344 99.5222 19.8594C99.5222 17.6719 100.022 15.6562 101.022 13.8125C102.053 11.9062 103.46 10.4375 105.241 9.40625C107.053 8.3125 109.053 7.76562 111.241 7.76562C114.803 7.76562 117.585 8.875 119.585 11.0937C121.616 13.3125 122.632 16.2188 122.632 19.8125C122.632 20.25 122.6 20.7812 122.538 21.4062ZM111.288 12.2187C109.632 12.2187 108.257 12.7031 107.163 13.6719C106.007 14.6094 105.319 15.875 105.1 17.4687H117.335C117.241 15.9062 116.632 14.625 115.507 13.625C114.319 12.6875 112.913 12.2187 111.288 12.2187Z" fill="#6935FD"/>
<path d="M141.844 31.53V18.4687C141.844 18.2732 141.844 18.0523 141.844 17.8136C141.844 14.9659 139.535 12.6562 136.688 12.6562C135.031 12.6562 130.33 12.6875 130.33 12.6875C130.33 12.6875 130.33 16.7656 130.33 18.5469V31.5312H125.127V8.23438C130.366 8.23438 133.013 8.20312 138.281 8.20312C141.156 8.20312 143.328 8.60937 144.797 10.3594C146.266 12.0469 147 14.3125 147 17.1562V31.53H141.844Z" fill="#6935FD"/>
</g>
<defs>
<filter id="filter0_d" x="0" y="0" width="151" height="40" filterUnits="userSpaceOnUse" color-interpolation-filters="sRGB">
<feFlood flood-opacity="0" result="BackgroundImageFix"/>
<feColorMatrix in="SourceAlpha" type="matrix" values="0 0 0 0 0 0 0 0 0 0 0 0 0 0 0 0 0 0 127 0"/>
<feOffset dy="4"/>
<feGaussianBlur stdDeviation="2"/>
<feColorMatrix type="matrix" values="0 0 0 0 0 0 0 0 0 0 0 0 0 0 0 0 0 0 0.25 0"/>
<feBlend mode="normal" in2="BackgroundImageFix" result="effect1_dropShadow"/>
<feBlend mode="normal" in="SourceGraphic" in2="effect1_dropShadow" result="shape"/>
</filter>
</defs>
</svg>
